<?xml version="1.0" encoding="utf-8"?>
<!-- Generator: Adobe Illustrator 21.0.0, SVG Export Plug-In . SVG Version: 6.00 Build 0)  -->
<!DOCTYPE svg PUBLIC "-//W3C//DTD SVG 1.1//EN" "http://www.w3.org/Graphics/SVG/1.1/DTD/svg11.dtd">
<svg version="1.1" id="Layer_1" xmlns="http://www.w3.org/2000/svg" xmlns:xlink="http://www.w3.org/1999/xlink" x="0px" y="0px"
	 width="57.6px" height="44.7px" viewBox="0 0 57.6 44.7" enable-background="new 0 0 57.6 44.7" xml:space="preserve">
<g id="Change1">
	<g>
		<path fill="#4D4028" d="M30.1,2.3c-2.6-2-11.5-5.1-21.6,3.2s-9.8,17.6-6.4,20.6s14.2-5.2,18.6-9.2S32.8,4.3,30.1,2.3z"/>
	</g>
	<g>
		<path fill="#4D4028" d="M33.4,6.5c-1.5-2.7-3.3,4-12.7,12.7C11.5,27.7,3.3,26.9,6.3,30s11.9,4.3,21.1-4.1
			C36.5,17.5,35,9.2,33.4,6.5z"/>
	</g>
</g>
<g id="Change2">
	<path fill="#41351F" d="M43.8,27.8c-2.4-2.1-6.6-5.5-10.5-7.7c-1.2,2.2-3,4.6-5.5,6.9c-1.2,1.1-2.4,2-3.6,2.8
		c1.2,3,3.6,6.2,7.3,9.3c10.1,8.4,19,5.2,21.6,3.2S48.3,31.8,43.8,27.8z"/>
	<path fill="#41351F" d="M50.4,18.7c-5.5-5-10.8-6.6-14.9-6.4c0,2-0.5,4.2-1.6,6.6c2.7,1.3,6.2,3.2,9.9,6.6
		c9.3,8.6,11.1,15.4,12.7,12.7C58,35.5,59.6,27.2,50.4,18.7z"/>
</g>
</svg>
