<?xml version="1.0" encoding="UTF-8"?>
<svg width="48px" height="48px" viewBox="0 0 48 48" version="1.1" xmlns="http://www.w3.org/2000/svg" xmlns:xlink="http://www.w3.org/1999/xlink">
    <!-- Generator: Sketch 63.1 (92452) - https://sketch.com -->
    <title>icons-feature/box</title>
    <desc>Created with Sketch.</desc>
    <g id="icons-feature/box" stroke="none" stroke-width="1" fill="none" fill-rule="evenodd">
        <g id="icon-box" transform="translate(6.000000, 7.000000)" fill="#F29D00">
            <path d="M0,0 L0,9.375 L1.5625,9.375 L1.5625,34.375 L35.9375,34.375 L35.9375,9.375 L37.5,9.375 L37.5,0 L0,0 Z M3.125,3.125 L34.375,3.125 L34.375,6.25 L3.125,6.25 L3.125,3.125 Z M4.6875,9.375 L32.8125,9.375 L32.8125,31.25 L4.6875,31.25 L4.6875,9.375 Z M13.7695312,12.5 C12.9089359,12.5793453 12.2741703,13.3483891 12.3535156,14.2089844 C12.4328609,15.0695797 13.2019047,15.7043453 14.0625,15.625 L23.4375,15.625 C23.9990234,15.6311031 24.5239266,15.3381344 24.8107906,14.8498531 C25.0915531,14.3615719 25.0915531,13.7634281 24.8107906,13.2751469 C24.5239266,12.7868656 23.9990234,12.4938969 23.4375,12.5 L14.0625,12.5 C14.0136719,12.5 13.9648438,12.5 13.9160156,12.5 C13.8671875,12.5 13.8183594,12.5 13.7695312,12.5 Z" id="Shape"></path>
        </g>
    </g>
</svg>