<?xml version="1.0" encoding="UTF-8"?>
<svg width="48px" height="48px" viewBox="0 0 48 48" version="1.1" xmlns="http://www.w3.org/2000/svg" xmlns:xlink="http://www.w3.org/1999/xlink">
    <!-- Generator: Sketch 63.1 (92452) - https://sketch.com -->
    <title>icons-feature/boxes</title>
    <desc>Created with Sketch.</desc>
    <g id="icons-feature/boxes" stroke="none" stroke-width="1" fill="none" fill-rule="evenodd">
        <g id="icon-gifts" transform="translate(3.500000, 5.000000)" fill="#F29D00">
            <path d="M9.375,0 L9.375,5.05371094 L3.93066406,1.78527828 L2.31933594,4.46472172 L5.29479984,6.25 L0,6.25 L0,35.9375 L9.375,35.9375 L9.375,32.8125 L3.125,32.8125 L3.125,9.375 L15.667725,9.375 C16.9692875,8.40625 18.56875,7.8125 20.3125,7.8125 C20.8625,7.8125 21.378125,7.87744141 21.875,7.97119141 L21.875,6.25 L16.5802,6.25 L19.5556641,4.46472172 L17.9443359,1.78527828 L12.5,5.05371094 L12.5,0 L9.375,0 Z M20.3125,10.9375 C17.7421875,10.9375 15.625,13.0546875 15.625,15.625 C15.625,16.175 15.7414063,16.69375 15.9179688,17.1875 L12.5,17.1875 L12.5,20.3125 L12.5,35.9375 L40.625,35.9375 L40.625,20.3125 L40.625,17.1875 L37.2070312,17.1875 C37.3851563,16.69375 37.5,16.175 37.5,15.625 C37.5,13.0546875 35.3828125,10.9375 32.8125,10.9375 C30.078125,10.9375 28.2222656,13.0117188 27.0019531,14.7460938 C26.8378906,14.9773437 26.7078125,15.2061766 26.5625,15.4327391 C26.415625,15.2061766 26.2871094,14.9789062 26.1230469,14.7460938 C24.9011719,13.0117188 23.046875,10.9375 20.3125,10.9375 Z M20.3125,14.0625 C21.2890625,14.0625 22.5585938,15.1117187 23.5351562,16.5039062 C23.7726563,16.8460937 23.7367188,16.8655516 23.9257812,17.1905516 L20.3125,17.1905516 C19.428125,17.1905516 18.75,16.5124266 18.75,15.6280516 C18.75,14.7436766 19.428125,14.0625 20.3125,14.0625 Z M32.8125,14.0625 C33.696875,14.0625 34.375,14.740625 34.375,15.625 C34.375,16.509375 33.696875,17.1875 32.8125,17.1875 L29.1992188,17.1875 C29.3898438,16.8640625 29.3523437,16.8445312 29.5898438,16.5039062 C30.5664062,15.1117187 31.8359375,14.0625 32.8125,14.0625 Z M15.625,20.3125 L25,20.3125 L25,32.8125 L15.625,32.8125 L15.625,20.3125 Z M28.125,20.3125 L37.5,20.3125 L37.5,32.8125 L28.125,32.8125 L28.125,20.3125 Z" id="Shape"></path>
        </g>
    </g>
</svg>