<?xml version="1.0" encoding="UTF-8"?>
<svg width="48px" height="48px" viewBox="0 0 48 48" version="1.1" xmlns="http://www.w3.org/2000/svg" xmlns:xlink="http://www.w3.org/1999/xlink">
    <!-- Generator: Sketch 63.1 (92452) - https://sketch.com -->
    <title>icons-feature/cart</title>
    <desc>Created with Sketch.</desc>
    <g id="icons-feature/cart" stroke="none" stroke-width="1" fill="none" fill-rule="evenodd">
        <g id="icon-shopping-cart" transform="translate(3.000000, 6.000000)" fill="#F29D00">
            <path d="M1.7578125,0 C0.789642773,0 0,0.789642773 0,1.7578125 C0,2.72598223 0.789642773,3.515625 1.7578125,3.515625 L5.65795898,3.515625 L10.2722168,21.9726562 C10.6636043,23.538208 12.0643611,24.609375 13.6779785,24.609375 L33.8378906,24.609375 C35.4240422,24.609375 36.7698674,23.5588078 37.1887207,22.0275879 L41.7480469,5.2734375 L12.3046875,5.2734375 L13.1835938,8.7890625 L37.1887207,8.7890625 L33.8378906,21.09375 L13.6779785,21.09375 L9.0637207,2.63671875 C8.6723332,1.07116699 7.27157637,0 5.65795898,0 L1.7578125,0 Z M31.640625,24.609375 C28.7498479,24.609375 26.3671875,26.9920354 26.3671875,29.8828125 C26.3671875,32.7735896 28.7498479,35.15625 31.640625,35.15625 C34.5314021,35.15625 36.9140625,32.7735896 36.9140625,29.8828125 C36.9140625,26.9920354 34.5314021,24.609375 31.640625,24.609375 Z M15.8203125,24.609375 C12.9295354,24.609375 10.546875,26.9920354 10.546875,29.8828125 C10.546875,32.7735896 12.9295354,35.15625 15.8203125,35.15625 C18.7110896,35.15625 21.09375,32.7735896 21.09375,29.8828125 C21.09375,26.9920354 18.7110896,24.609375 15.8203125,24.609375 Z M15.8203125,28.125 C16.809082,28.125 17.578125,28.894043 17.578125,29.8828125 C17.578125,30.871582 16.809082,31.640625 15.8203125,31.640625 C14.831543,31.640625 14.0625,30.871582 14.0625,29.8828125 C14.0625,28.894043 14.831543,28.125 15.8203125,28.125 Z M31.640625,28.125 C32.6293945,28.125 33.3984375,28.894043 33.3984375,29.8828125 C33.3984375,30.871582 32.6293945,31.640625 31.640625,31.640625 C30.6518555,31.640625 29.8828125,30.871582 29.8828125,29.8828125 C29.8828125,28.894043 30.6518555,28.125 31.640625,28.125 Z" id="Shape"></path>
        </g>
    </g>
</svg>