<?xml version="1.0" encoding="UTF-8"?>
<svg width="48px" height="48px" viewBox="0 0 48 48" version="1.1" xmlns="http://www.w3.org/2000/svg" xmlns:xlink="http://www.w3.org/1999/xlink">
    <!-- Generator: Sketch 63.1 (92452) - https://sketch.com -->
    <title>icons-feature/chat</title>
    <desc>Created with Sketch.</desc>
    <g id="icons-feature/chat" stroke="none" stroke-width="1" fill="none" fill-rule="evenodd">
        <g id="icon-messaging" transform="translate(5.000000, 3.312500)" fill="#F29D00">
            <path d="M16.40625,0 C11.9950469,0 7.97216203,1.30748203 4.98046875,3.51867672 C1.98877547,5.72987156 0,8.93205094 0,12.5335687 C0,16.6603031 2.29602469,20.3560984 6.25,22.6074219 L6.25,31.1065672 L15.0726312,25.0030516 C15.5111016,25.0327391 15.9462375,25.0671391 16.40625,25.0671391 C20.8175516,25.0671391 24.8403938,23.7598328 27.8320312,21.5484625 C30.8236687,19.3370844 32.8125,16.1344547 32.8125,12.5335687 C32.8125,8.93268484 30.8237016,5.72963734 27.8320312,3.51867672 C24.8403609,1.30771625 20.8174531,0 16.40625,0 Z M16.40625,3.125 C20.1934844,3.125 23.5929156,4.27397328 25.9735109,6.03332516 C28.3541063,7.79267719 29.6875,10.0750797 29.6875,12.5335687 C29.6875,14.9920594 28.3541391,17.2740906 25.9735109,19.0338141 C23.5928828,20.7935359 20.1933859,21.9421391 16.40625,21.9421391 C15.8590641,21.9421391 15.3119703,21.9098031 14.7583,21.8597406 L14.1967781,21.8109125 L9.375,25.1464844 L9.375,20.7824703 L8.480835,20.3582766 C4.81164187,18.6184047 3.125,15.8419859 3.125,12.5335687 C3.125,10.0741516 4.45841688,7.79283359 6.83898922,6.03332516 C9.21956172,4.27381687 12.6190156,3.125 16.40625,3.125 Z M35.9008781,13.1225594 C35.8461906,14.3522469 35.6258547,15.5419187 35.2508547,16.6778562 C36.6696047,18.1747312 37.5,19.9726312 37.5,21.9085688 C37.5,25.3179437 35.5988531,28.0957766 32.1441656,29.7332766 L31.25,30.1574703 L31.25,34.5214844 L26.4282219,31.1859125 L25.8667,31.2347406 C25.3245109,31.2831781 24.7765625,31.3201906 24.21875,31.3201906 C20.70625,31.3201906 17.5178953,30.3410891 15.1397703,28.7567141 L12.4481203,30.6182859 C15.4324953,32.9714109 19.6015625,34.4451906 24.21875,34.4451906 C24.6765625,34.4451906 25.1299078,34.42605 25.5767828,34.3963625 L34.375,40.4785156 L34.375,32.0983891 C38.3609375,29.8796391 40.625,26.2132562 40.625,21.9085688 C40.625,18.4898187 38.8180672,15.3866219 35.9008781,13.1225594 Z" id="Shape"></path>
        </g>
    </g>
</svg>