<?xml version="1.0" encoding="UTF-8"?>
<svg width="48px" height="48px" viewBox="0 0 48 48" version="1.1" xmlns="http://www.w3.org/2000/svg" xmlns:xlink="http://www.w3.org/1999/xlink">
    <!-- Generator: Sketch 63.1 (92452) - https://sketch.com -->
    <title>icons-feature/coins</title>
    <desc>Created with Sketch.</desc>
    <g id="icons-feature/coins" stroke="none" stroke-width="1" fill="none" fill-rule="evenodd">
        <g id="icon-coins" transform="translate(3.583333, 4.500000)" fill="#F29D00">
            <path d="M28.7760417,0 C25.7410681,0 22.9904171,0.568645052 20.8414714,1.6398112 C18.6925257,2.71097904 16.9270833,4.45658451 16.9270833,6.77083333 L16.9270833,13.5416667 C16.9270833,13.7598669 16.9998173,13.9714555 17.0328776,14.1764323 C15.4591887,13.7664803 13.7135832,13.5416667 11.8489583,13.5416667 C8.81398477,13.5416667 6.06333372,14.1103117 3.91438802,15.1814779 C1.76544232,16.2526457 0,17.9982512 0,20.3125 L0,33.8541667 C0,36.1684172 1.76544232,37.9140227 3.91438802,38.9851888 C6.06333372,40.0563566 8.81398477,40.625 11.8489583,40.625 C14.8839319,40.625 17.6345829,40.0563566 19.7835286,38.9851888 C21.9324743,37.9140227 23.6979167,36.1684172 23.6979167,33.8541667 L23.6979167,33.1665039 C25.2517704,33.5764576 26.9510905,33.8541667 28.7760417,33.8541667 C31.8110152,33.8541667 34.5616663,33.2855233 36.710612,32.2143555 C38.8595577,31.1431893 40.625,29.3975839 40.625,27.0833333 L40.625,6.77083333 C40.625,4.45658451 38.8595577,2.71097904 36.710612,1.6398112 C34.5616663,0.568645052 31.8110152,0 28.7760417,0 Z M28.7760417,3.38541667 C31.3547779,3.38541667 33.6491898,3.94083659 35.1765951,4.70784505 C36.7040003,5.47485352 37.2395833,6.28153568 37.2395833,6.77083333 C37.2395833,7.26013268 36.7040003,8.06681315 35.1765951,8.83382161 C33.6491898,9.60083008 31.3547779,10.15625 28.7760417,10.15625 C26.1973072,10.15625 23.9028935,9.60083008 22.3754883,8.83382161 C20.8480831,8.06681315 20.3125,7.26013268 20.3125,6.77083333 C20.3125,6.28153568 20.8480831,5.47485352 22.3754883,4.70784505 C23.9028935,3.94083659 26.1973072,3.38541667 28.7760417,3.38541667 Z M20.3125,11.5844727 C20.4910283,11.6836552 20.6563314,11.8092863 20.8414714,11.9018555 C22.9904171,12.9730233 25.7410681,13.5416667 28.7760417,13.5416667 C31.8110152,13.5416667 34.5616663,12.9730233 36.710612,11.9018555 C36.895752,11.8092863 37.0610551,11.6836552 37.2395833,11.5844727 L37.2395833,13.5416667 C37.2395833,14.030966 36.7040003,14.8376465 35.1765951,15.6046549 C33.6491898,16.3716634 31.3547779,16.9270833 28.7760417,16.9270833 C26.1973072,16.9270833 23.9028935,16.3716634 22.3754883,15.6046549 C20.8480831,14.8376465 20.3125,14.030966 20.3125,13.5416667 L20.3125,11.5844727 Z M11.8489583,16.9270833 C14.4276945,16.9270833 16.7221065,17.4825033 18.2495117,18.2495117 C19.7769169,19.0165202 20.3125,19.8232023 20.3125,20.3125 C20.3125,20.8017993 19.7769169,21.6084798 18.2495117,22.3754883 C16.7221065,23.1424967 14.4276945,23.6979167 11.8489583,23.6979167 C9.27022383,23.6979167 6.97581016,23.1424967 5.44840495,22.3754883 C3.92099974,21.6084798 3.38541667,20.8017993 3.38541667,20.3125 C3.38541667,19.8232023 3.92099974,19.0165202 5.44840495,18.2495117 C6.97581016,17.4825033 9.27022383,16.9270833 11.8489583,16.9270833 Z M37.2395833,18.355306 L37.2395833,20.3125 C37.2395833,20.8017993 36.7040003,21.6084798 35.1765951,22.3754883 C33.6491898,23.1424967 31.3547779,23.6979167 28.7760417,23.6979167 C26.8519079,23.6979167 25.1129159,23.3805339 23.6979167,22.9044596 L23.6979167,20.3125 C23.6979167,20.0942997 23.6251827,19.8827112 23.5921224,19.6777344 C25.165813,20.087688 26.9114185,20.3125 28.7760417,20.3125 C31.8110152,20.3125 34.5616663,19.7438566 36.710612,18.6726888 C36.895752,18.5801197 37.0610551,18.4544885 37.2395833,18.355306 Z M3.38541667,25.1261393 C3.56394492,25.2253219 3.72924805,25.350953 3.91438802,25.4435221 C6.06333372,26.51469 8.81398477,27.0833333 11.8489583,27.0833333 C14.8839319,27.0833333 17.6345829,26.51469 19.7835286,25.4435221 C19.9686686,25.350953 20.1339717,25.2253219 20.3125,25.1261393 L20.3125,27.0833333 C20.3125,27.5726327 19.7769169,28.3793132 18.2495117,29.1463216 C16.7221065,29.9133301 14.4276945,30.46875 11.8489583,30.46875 C9.27022383,30.46875 6.97581016,29.9133301 5.44840495,29.1463216 C3.92099974,28.3793132 3.38541667,27.5726327 3.38541667,27.0833333 L3.38541667,25.1261393 Z M37.2395833,25.1261393 L37.2395833,27.0833333 C37.2395833,27.5726327 36.7040003,28.3793132 35.1765951,29.1463216 C33.6491898,29.9133301 31.3547779,30.46875 28.7760417,30.46875 C26.8519079,30.46875 25.1129159,30.1976526 23.6979167,29.7281901 L23.6979167,26.4485677 C25.2517704,26.8585214 26.9444788,27.0833333 28.7760417,27.0833333 C31.8110152,27.0833333 34.5616663,26.51469 36.710612,25.4435221 C36.895752,25.350953 37.0610551,25.2253219 37.2395833,25.1261393 Z M3.38541667,31.8969727 C3.56394492,31.9961552 3.72924805,32.1217863 3.91438802,32.2143555 C6.06333372,33.2855233 8.81398477,33.8541667 11.8489583,33.8541667 C14.8839319,33.8541667 17.6345829,33.2855233 19.7835286,32.2143555 C19.9686686,32.1217863 20.1339717,31.9961552 20.3125,31.8969727 L20.3125,33.8541667 C20.3125,34.343466 19.7769169,35.1501465 18.2495117,35.9171549 C16.7221065,36.6841634 14.4276945,37.2395833 11.8489583,37.2395833 C9.27022383,37.2395833 6.97581016,36.6841634 5.44840495,35.9171549 C3.92099974,35.1501465 3.38541667,34.343466 3.38541667,33.8541667 L3.38541667,31.8969727 Z" id="Shape"></path>
        </g>
    </g>
</svg>