<?xml version="1.0" encoding="UTF-8"?>
<svg width="48px" height="48px" viewBox="0 0 48 48" version="1.1" xmlns="http://www.w3.org/2000/svg" xmlns:xlink="http://www.w3.org/1999/xlink">
    <!-- Generator: Sketch 63.1 (92452) - https://sketch.com -->
    <title>icons-feature/gift</title>
    <desc>Created with Sketch.</desc>
    <g id="icons-feature/gift" stroke="none" stroke-width="1" fill="none" fill-rule="evenodd">
        <g id="icon-gift" transform="translate(6.000000, 6.000000)" fill="#F29D00">
            <path d="M12.5,0 C9.93042031,0 7.8125,2.11792031 7.8125,4.6875 C7.8125,5.23681719 7.92846719,5.75561562 8.10546875,6.25 L0,6.25 L0,15.625 L1.5625,15.625 L1.5625,35.9375 L35.9375,35.9375 L35.9375,15.625 L37.5,15.625 L37.5,6.25 L29.3945312,6.25 C29.5715328,5.75561562 29.6875,5.23681719 29.6875,4.6875 C29.6875,2.11792031 27.5695797,0 25,0 C22.265625,0 20.4101562,2.07519531 19.1894531,3.80859375 C19.0246578,4.04052812 18.8964844,4.26635781 18.75,4.4921875 C18.6035156,4.26635781 18.4753422,4.04052812 18.3105469,3.80859375 C17.0898438,2.07519531 15.234375,0 12.5,0 Z M12.5,3.125 C13.4765625,3.125 14.7460938,4.17480469 15.7226562,5.56640625 C15.9606937,5.90820312 15.9240719,5.92651406 16.1132812,6.25 L12.5,6.25 C11.6149906,6.25 10.9375,5.57250938 10.9375,4.6875 C10.9375,3.80249063 11.6149906,3.125 12.5,3.125 Z M25,3.125 C25.8850094,3.125 26.5625,3.80249063 26.5625,4.6875 C26.5625,5.57250938 25.8850094,6.25 25,6.25 L21.3867188,6.25 C21.5759281,5.92651406 21.5393063,5.90820312 21.7773438,5.56640625 C22.7539062,4.17480469 24.0234375,3.125 25,3.125 Z M3.125,9.375 L34.375,9.375 L34.375,12.5 L20.3125,12.5 L20.3125,10.9375 L17.1875,10.9375 L17.1875,12.5 L3.125,12.5 L3.125,9.375 Z M4.6875,15.625 L32.8125,15.625 L32.8125,32.8125 L20.3125,32.8125 L20.3125,17.1875 L17.1875,17.1875 L17.1875,32.8125 L4.6875,32.8125 L4.6875,15.625 Z" id="Shape"></path>
        </g>
    </g>
</svg>