<?xml version="1.0" encoding="UTF-8"?>
<svg width="48px" height="48px" viewBox="0 0 48 48" version="1.1" xmlns="http://www.w3.org/2000/svg" xmlns:xlink="http://www.w3.org/1999/xlink">
    <!-- Generator: Sketch 63.1 (92452) - https://sketch.com -->
    <title>icons-feature/globe</title>
    <desc>Created with Sketch.</desc>
    <g id="icons-feature/globe" stroke="none" stroke-width="1" fill="none" fill-rule="evenodd">
        <g id="icon-america" transform="translate(4.000000, 4.312500)" fill="#F29D00">
            <path d="M20.3125,0 C9.1125,0 0,9.1125 0,20.3125 C0,31.5125 9.1125,40.625 20.3125,40.625 C31.5125,40.625 40.625,31.5125 40.625,20.3125 C40.625,9.1125 31.5125,0 20.3125,0 Z M20.3125,3.125 C20.840625,3.125 21.359375,3.15747078 21.875,3.20434563 L21.875,4.6875 L25,4.6875 L25,3.79028313 C28.840625,4.88247063 32.134375,7.27236328 34.375,10.4614258 L34.375,15.625 L35.9375,18.75 L35.9375,20.3125 L37.5,20.3125 C37.5,20.884375 37.4692375,21.4514656 37.41455,22.0092781 C37.4004875,22.1592781 37.3692141,22.3033453 37.3504641,22.4517828 C37.2989016,22.8627203 37.2455562,23.2709234 37.1643063,23.6724859 C37.1346188,23.8224859 37.0949219,23.9696047 37.0605469,24.1180422 C36.9699219,24.5149172 36.8725578,24.9100828 36.7553719,25.2960203 C36.7147469,25.4288328 36.6678953,25.5584469 36.6241453,25.6896969 C36.4928953,26.0865719 36.3532234,26.4802484 36.1938469,26.8646234 C36.1469719,26.9771234 36.0958,27.0863281 36.0473625,27.1972656 C35.8723641,27.5957031 35.6889656,27.9878906 35.4858406,28.3691406 C35.4374031,28.4613281 35.3848141,28.5516844 35.3332516,28.6407469 C35.1145016,29.0344969 34.8828375,29.4162594 34.6344,29.7912594 C34.5859625,29.8646969 34.5348625,29.9406 34.4848625,30.0140375 C34.2223641,30.39685 33.9439203,30.7685547 33.6517328,31.1279297 C33.6032953,31.1873047 33.5597906,31.2440672 33.5113531,31.3018797 C33.2082281,31.6659422 32.8874016,32.0141844 32.5561531,32.3516844 C32.5077156,32.4001219 32.4611578,32.4527828 32.4127203,32.5012203 C32.0736578,32.8371578 31.7193844,33.1593266 31.3537594,33.4655766 C31.3021969,33.5093266 31.2573484,33.5546141 31.2042234,33.5968016 C30.8385984,33.8968016 30.4549797,34.1764406 30.0659187,34.4451906 C30.0049797,34.4873781 29.9498531,34.5357906 29.8889156,34.5764156 C29.5154781,34.8279781 29.12605,35.0564453 28.7323,35.2783203 C26.897925,36.3080078 24.8587156,37.0169672 22.6837156,37.3138422 L28.9520266,32.5897219 L30.6701656,30.8715813 L32.8125,26.5625 L32.8125,25 L29.6875,23.4375 L28.125,23.4375 L25,20.3125 L21.875,20.3125 L20.3125,21.875 L20.3125,23.4375 L18.75,25 L18.75,28.125 L21.875,30.6243891 L18.7866219,37.4237063 C10.0225586,36.6455812 3.125,29.2734375 3.125,20.3125 C3.125,14.9875 5.5609375,10.2210694 9.375,7.06481938 L9.375,7.8125 L7.8125,9.375 L7.8125,12.8112797 L9.375,18.75 L17.1875,21.875 L18.75,21.875 L18.75,20.3125 L14.0625,18.75 L14.0625,15.625 L18.75,15.625 L20.3125,11.71875 L23.4375,9.375 L23.4375,7.8125 L18.75,4.6875 L16.5039062,3.56445312 C17.7304688,3.28632813 19.0015625,3.125 20.3125,3.125 Z M18.75,17.1875 L18.75,18.75 L21.875,18.75 L21.875,17.1875 L18.75,17.1875 Z" id="Shape"></path>
        </g>
    </g>
</svg>