<?xml version="1.0" encoding="UTF-8"?>
<svg width="48px" height="48px" viewBox="0 0 48 48" version="1.1" xmlns="http://www.w3.org/2000/svg" xmlns:xlink="http://www.w3.org/1999/xlink">
    <!-- Generator: Sketch 63.1 (92452) - https://sketch.com -->
    <title>icons-feature/hand</title>
    <desc>Created with Sketch.</desc>
    <g id="icons-feature/hand" stroke="none" stroke-width="1" fill="none" fill-rule="evenodd">
        <g id="icon-receive-cash" transform="translate(3.416667, 3.416667)" fill="#F29D00">
            <path d="M22.0052083,0 C18.282572,0 15.234375,3.04819701 15.234375,6.77083333 C15.234375,9.27683555 16.6361491,11.4720667 18.6726888,12.6424154 C18.6396285,12.9399613 18.6197917,13.2308956 18.6197917,13.5416667 C18.6197917,18.1966146 22.4283854,22.0052083 27.0833333,22.0052083 C31.7382812,22.0052083 35.546875,18.1966146 35.546875,13.5416667 C35.546875,9.39585326 32.5119014,5.89141888 28.5644531,5.18391927 C27.8503418,2.21506797 25.1856482,0 22.0052083,0 Z M22.0052083,3.38541667 C23.3805339,3.38541667 24.5376591,4.18548542 25.0732422,5.34261068 C22.8581742,5.89141888 20.9803259,7.33947839 19.8364258,9.2569987 C19.109091,8.64868164 18.6197917,7.80232747 18.6197917,6.77083333 C18.6197917,4.87976159 20.1141366,3.38541667 22.0052083,3.38541667 Z M27.0833333,8.46354167 C29.9067184,8.46354167 32.1614583,10.7182816 32.1614583,13.5416667 C32.1614583,16.3650517 29.9067184,18.6197917 27.0833333,18.6197917 C24.2599483,18.6197917 22.0052083,16.3650517 22.0052083,13.5416667 C22.0052083,10.7182816 24.2599483,8.46354167 27.0833333,8.46354167 Z M12.6424154,20.3125 C7.23368411,20.3125 0.0528971354,23.2747396 0.0528971354,23.2747396 L1.32242839,26.4485677 C1.32242839,26.4485677 8.59578451,23.6979167 12.6424154,23.6979167 C14.2822266,23.6979167 17.079163,24.7029622 19.3603516,25.8666992 C20.49764,26.4485677 21.5159107,27.0568848 22.269694,27.5594076 C22.6465857,27.8106698 22.9639685,28.0354818 23.1689453,28.1941732 C23.2681279,28.2735189 23.3408618,28.3660897 23.3805339,28.4057617 L23.6450195,28.7760417 C23.7772624,29.1529333 23.7375904,29.5761104 23.4863281,29.9397786 C23.1623336,30.396016 22.5870768,30.5745443 22.0581055,30.4158529 L22.0052083,30.4158529 L14.6525065,26.8717448 L13.2242839,29.9397786 L20.7356771,33.5367839 L20.7885742,33.5367839 L20.8943685,33.589681 C22.8515625,34.2773438 25.0401819,33.5962927 26.2369792,31.8969727 C26.9114185,30.9382125 27.1097819,29.8141475 26.9775391,28.7231445 L35.1236979,27.347819 C36.0229492,27.1957393 36.8494665,27.7577727 37.1337891,28.6173503 C37.4379484,29.5298267 37.0081579,30.4555266 36.1287435,30.8390299 C33.6491898,31.9300329 29.6620695,33.5632324 26.0782878,34.9121094 C24.2863969,35.5865487 22.5738534,36.1816406 21.2646484,36.6048177 C20.610046,36.8164062 20.0414026,36.9750977 19.6248372,37.0808919 C19.2082719,37.1866862 18.8710539,37.2395833 19.0429688,37.2395833 C19.148763,37.2395833 18.467712,37.0875036 17.6676432,36.6577148 C16.8675745,36.227926 15.8625289,35.5997721 14.8640951,34.9650065 C13.8656612,34.3302409 12.8341671,33.6888635 11.8489583,33.1665039 C10.8637496,32.6441443 9.97772174,32.1614583 8.78092448,32.1614583 C6.01043659,32.1614583 3.54410807,33.219401 3.54410807,33.219401 L4.86653646,36.340332 C4.86653646,36.340332 6.93613646,35.546875 8.78092448,35.546875 C8.73463906,35.546875 9.4553638,35.6989547 10.2620443,36.1287435 C11.0687264,36.5585323 12.0671586,37.1866862 13.0655924,37.8214518 C14.0640263,38.4562174 15.0624602,39.0975948 16.027832,39.6199544 C16.9932056,40.1423141 17.8395598,40.625 19.0429688,40.625 C19.6182255,40.625 19.9488318,40.4993689 20.4711914,40.3605143 C20.993551,40.2216598 21.6283167,40.0563566 22.3225911,39.831543 C23.7111418,39.3819173 25.4170736,38.7736003 27.2420247,38.0859375 C30.8853154,36.7172237 34.9253345,35.0972493 37.504069,33.9599609 C39.9505624,32.8821814 41.2068685,30.0389612 40.3605143,27.5065104 C39.5538339,25.0864673 37.0610551,23.5987341 34.5418294,24.0152995 L25.2848307,25.5493164 C25.278219,25.5427047 25.2451587,25.5559281 25.2319336,25.5493164 C25.1790365,25.5096444 25.1261393,25.4302987 25.0732422,25.390625 L24.597168,25.0203451 L24.597168,25.0732422 C24.4517017,24.9674479 24.3459074,24.8682654 24.1739909,24.7558594 C23.2945764,24.1739909 22.1506763,23.4929398 20.8943685,22.8515625 C18.3751428,21.5688078 15.419515,20.3125 12.6424154,20.3125 Z" id="Shape"></path>
        </g>
    </g>
</svg>