<?xml version="1.0" encoding="UTF-8"?>
<svg width="48px" height="48px" viewBox="0 0 48 48" version="1.1" xmlns="http://www.w3.org/2000/svg" xmlns:xlink="http://www.w3.org/1999/xlink">
    <!-- Generator: Sketch 63.1 (92452) - https://sketch.com -->
    <title>icons-feature/key</title>
    <desc>Created with Sketch.</desc>
    <g id="icons-feature/key" stroke="none" stroke-width="1" fill="none" fill-rule="evenodd">
        <g id="key" transform="translate(3.500000, 3.500000)" fill="#F29D00">
            <path d="M7.2,40.32 L1.44,40.32 C0.64404,40.32 0,39.67524 0,38.88 L0,33.12 C0,32.73804 0.15192,32.37192 0.42192,32.10192 L12.62124,19.90188 C11.88972,18.14904 11.52,16.30332 11.52,14.4 C11.52,6.45948 17.9802,-2.55795385e-15 25.92,-2.55795385e-15 C33.8598,-2.55795385e-15 40.32,6.45948 40.32,14.4 C40.32,22.34052 33.8598,28.8 25.92,28.8 C24.0174,28.8 22.17096,28.43028 20.4174,27.69804 L16.85808,31.25808 C16.58808,31.52808 16.22268,31.68 15.84,31.68 L12.96,31.68 L12.96,34.56 C12.96,35.35524 12.31596,36 11.52,36 L8.64,36 L8.64,38.88 C8.64,39.67524 7.99596,40.32 7.2,40.32 Z M2.88,37.44 L5.76,37.44 L5.76,34.56 C5.76,33.76476 6.40404,33.12 7.2,33.12 L10.08,33.12 L10.08,30.24 C10.08,29.44476 10.72404,28.8 11.52,28.8 L15.24384,28.8 L19.09008,24.95376 C19.5318,24.51492 20.20392,24.40656 20.75508,24.68592 C22.38336,25.50456 24.12,25.92 25.92,25.92 C32.2722,25.92 37.44,20.7522 37.44,14.4 C37.44,8.0478 32.2722,2.88 25.92,2.88 C19.5678,2.88 14.4,8.0478 14.4,14.4 C14.4,16.19928 14.81472,17.93736 15.6348,19.56456 C15.91308,20.12004 15.80508,20.79072 15.36624,21.23028 L2.88,33.71616 L2.88,37.44 Z M27.36,18.72 C24.18336,18.72 21.6,16.13592 21.6,12.96 C21.6,9.78408 24.18336,7.2 27.36,7.2 C30.53664,7.2 33.12,9.78408 33.12,12.96 C33.12,16.13592 30.53664,18.72 27.36,18.72 Z M27.36,10.08 C25.7724,10.08 24.48,11.37168 24.48,12.96 C24.48,14.54832 25.7724,15.84 27.36,15.84 C28.9476,15.84 30.24,14.54832 30.24,12.96 C30.24,11.37168 28.9476,10.08 27.36,10.08 Z" id="Key"></path>
        </g>
    </g>
</svg>