<?xml version="1.0" encoding="UTF-8"?>
<svg width="48px" height="48px" viewBox="0 0 48 48" version="1.1" xmlns="http://www.w3.org/2000/svg" xmlns:xlink="http://www.w3.org/1999/xlink">
    <!-- Generator: Sketch 63.1 (92452) - https://sketch.com -->
    <title>icons-feature/label</title>
    <desc>Created with Sketch.</desc>
    <g id="icons-feature/label" stroke="none" stroke-width="1" fill="none" fill-rule="evenodd">
        <g id="icon-price-tag" transform="translate(3.500000, 3.500000)" fill="#F29D00">
            <path d="M21.5084459,0 L20.9673775,0.486961571 L1.21838049,20.452386 L0.0280299831,21.6427365 L1.21838049,22.8871938 L17.6668602,39.3356736 L18.9113176,40.5260241 L20.1016681,39.3356736 L40.0670925,19.5866765 L40.5540541,19.0456081 L40.5540541,0 L21.5084459,0 Z M22.9693307,3.46283784 L37.0912162,3.46283784 L37.0912162,17.5847234 L18.9113176,35.6564084 L4.89764569,21.6427365 L22.9693307,3.46283784 Z M31.8969595,6.92567568 C30.9433268,6.92567568 30.1655405,7.70346195 30.1655405,8.65709459 C30.1655405,9.61072724 30.9433268,10.3885135 31.8969595,10.3885135 C32.8505921,10.3885135 33.6283784,9.61072724 33.6283784,8.65709459 C33.6283784,7.70346195 32.8505921,6.92567568 31.8969595,6.92567568 Z" id="Shape"></path>
        </g>
    </g>
</svg>