<?xml version="1.0" encoding="UTF-8"?>
<svg width="48px" height="48px" viewBox="0 0 48 48" version="1.1" xmlns="http://www.w3.org/2000/svg" xmlns:xlink="http://www.w3.org/1999/xlink">
    <!-- Generator: Sketch 63.1 (92452) - https://sketch.com -->
    <title>icons-feature/like</title>
    <desc>Created with Sketch.</desc>
    <g id="icons-feature/like" stroke="none" stroke-width="1" fill="none" fill-rule="evenodd">
        <g id="icon-facebook-like" transform="translate(4.010417, 3.291667)" fill="#F29D00">
            <path d="M17.392985,0 L10.6872559,13.4114583 L0,13.4114583 L0,40.234375 L31.590271,40.234375 C33.9543021,40.234375 36.0171,38.5644909 36.5147909,36.2528483 L40.129598,19.4885254 C40.7910025,16.3910552 38.3680348,13.4114583 35.2050781,13.4114583 L22.1603394,13.4114583 C22.2847625,12.3636882 22.3109567,11.3093698 23.1033325,8.90604655 C23.6141213,7.35403739 23.4700521,5.92644967 23.4700521,5.02929688 C23.4700521,3.7785208 22.9658131,2.6259736 22.1079508,1.67643229 C21.2500886,0.726890983 19.960022,0 18.4407552,0 L17.392985,0 Z M19.2789714,3.77197266 C19.3837484,3.85055542 19.5540119,3.82436117 19.6456909,3.92913818 C19.960022,4.27621164 20.1171875,4.75425804 20.1171875,5.02929688 C20.1171875,6.11635928 20.1499299,7.13138538 19.9076335,7.85827637 C18.6568574,11.6498951 18.4407552,14.9831136 18.4407552,14.9831136 L18.3359782,16.7643229 L35.2050781,16.7643229 C36.311785,16.7643229 37.0583221,17.7269622 36.8291219,18.8074748 L33.2667033,35.5717977 C33.0964415,36.3576253 32.3891966,36.8815104 31.590271,36.8815104 L13.4114583,36.8815104 L13.4114583,15.5069987 L19.2789714,3.77197266 Z M3.35286458,16.7643229 L10.0585938,16.7643229 L10.0585938,36.8815104 L3.35286458,36.8815104 L3.35286458,16.7643229 Z M6.70572917,31.8522135 C5.78238211,31.8522135 5.02929688,32.6052988 5.02929688,33.5286458 C5.02929688,34.4519929 5.78238211,35.2050781 6.70572917,35.2050781 C7.62907622,35.2050781 8.38216146,34.4519929 8.38216146,33.5286458 C8.38216146,32.6052988 7.62907622,31.8522135 6.70572917,31.8522135 Z" id="Shape"></path>
        </g>
    </g>
</svg>