<?xml version="1.0" encoding="UTF-8"?>
<svg width="48px" height="48px" viewBox="0 0 48 48" version="1.1" xmlns="http://www.w3.org/2000/svg" xmlns:xlink="http://www.w3.org/1999/xlink">
    <!-- Generator: Sketch 63.1 (92452) - https://sketch.com -->
    <title>icons-feature/moneybill</title>
    <desc>Created with Sketch.</desc>
    <g id="icons-feature/moneybill" stroke="none" stroke-width="1" fill="none" fill-rule="evenodd">
        <path d="M3.94791667,8.21122233 L3.94791667,31.127889 L44.0520833,31.127889 L44.0520833,8.21122233 L3.94791667,8.21122233 Z M9.55399648,11.0758057 L38.4515995,11.0758057 C38.3676758,11.3051958 38.3229167,11.5457764 38.3229167,11.7919515 C38.3229167,12.978068 39.2852376,13.940389 40.4713542,13.940389 C40.7175293,13.940389 40.9581099,13.8956299 41.1875,13.8173021 L41.1875,25.5274051 C40.9581099,25.4434814 40.7175293,25.3987223 40.4713542,25.3987223 C39.2852376,25.3987223 38.3229167,26.3610433 38.3229167,27.5471598 C38.3229167,27.793335 38.3676758,28.0339156 38.4515995,28.2633057 L9.55399648,28.2633057 C9.63232422,28.0339156 9.67708333,27.793335 9.67708333,27.5471598 C9.67708333,26.3610433 8.71476237,25.3987223 7.52864583,25.3987223 C7.2824707,25.3987223 7.0418901,25.4434814 6.8125,25.5274051 L6.8125,13.8173021 C7.0418901,13.8956299 7.2824707,13.940389 7.52864583,13.940389 C8.71476237,13.940389 9.67708333,12.978068 9.67708333,11.7919515 C9.67708333,11.5457764 9.63232422,11.3051958 9.55399648,11.0758057 Z M24,13.940389 C20.8332934,13.940389 18.2708333,16.502849 18.2708333,19.6695557 L18.2708333,21.1018473 L18.5617676,21.1018473 C19.2051802,23.5524096 21.3424272,25.3987223 24,25.3987223 C26.6575728,25.3987223 28.7948198,23.5524096 29.4382324,21.1018473 L29.7291667,21.1018473 L29.7291667,19.6695557 C29.7291667,16.502849 27.1667081,13.940389 24,13.940389 Z M24,16.8049723 C25.7064409,16.8049723 26.8645833,17.9631148 26.8645833,19.6695557 C26.8645833,21.3759965 25.7064409,22.534139 24,22.534139 C22.2935591,22.534139 21.1354167,21.3759965 21.1354167,19.6695557 C21.1354167,17.9631148 22.2935591,16.8049723 24,16.8049723 Z M13.9739583,17.5211182 C12.7878418,17.5211182 11.8255208,18.4834391 11.8255208,19.6695557 C11.8255208,20.8556722 12.7878418,21.8179932 13.9739583,21.8179932 C15.1600749,21.8179932 16.1223958,20.8556722 16.1223958,19.6695557 C16.1223958,18.4834391 15.1600749,17.5211182 13.9739583,17.5211182 Z M34.0260417,17.5211182 C32.8399251,17.5211182 31.8776042,18.4834391 31.8776042,19.6695557 C31.8776042,20.8556722 32.8399251,21.8179932 34.0260417,21.8179932 C35.2121582,21.8179932 36.1744792,20.8556722 36.1744792,19.6695557 C36.1744792,18.4834391 35.2121582,17.5211182 34.0260417,17.5211182 Z M3.94791667,32.5601797 L3.94791667,35.424764 L5.38580286,35.424764 C5.38580286,35.424764 25.9190474,35.3688158 40.8238326,39.318807 L42.6197917,39.7887777 L42.6197917,32.5601797 L39.7552083,32.5601797 L39.7552083,34.1211551 C39.5258182,34.0372314 39.2852376,33.9924723 39.0390625,33.9924723 C38.071147,33.9924723 37.2207238,34.647074 36.9633582,35.5814209 C22.2488,32.5433956 5.39699336,32.5601797 5.38020833,32.5601797 L3.94791667,32.5601797 Z" id="Shape" fill="#F29D00"></path>
    </g>
</svg>