<?xml version="1.0" encoding="UTF-8"?>
<svg width="48px" height="48px" viewBox="0 0 48 48" version="1.1" xmlns="http://www.w3.org/2000/svg" xmlns:xlink="http://www.w3.org/1999/xlink">
    <!-- Generator: Sketch 63.1 (92452) - https://sketch.com -->
    <title>icons-feature/paper</title>
    <desc>Created with Sketch.</desc>
    <g id="icons-feature/paper" stroke="none" stroke-width="1" fill="none" fill-rule="evenodd">
        <path d="M17.6,4 L17.6,7.2 L11.2,7.2 L11.2,32.8 L14.4,32.8 L14.4,10.4 L17.6,10.4 L17.6,13.6 L20.8,13.6 L20.8,10.4 L32,10.4 L32,13.6 L35.2,13.6 L35.2,10.4 L38.4,10.4 L38.4,39.2 C38.4,40.104048 37.704048,40.8 36.8,40.8 C35.895952,40.8 35.2,40.104048 35.2,39.2 L35.2,34.4 L33.6,34.4 L6.4,34.4 L6.4,39.2 C6.4,41.831952 8.56804832,44 11.2,44 L36.8,44 C39.431952,44 41.6,41.831952 41.6,39.2 L41.6,7.2 L35.2,7.2 L35.2,4 L32,4 L32,7.2 L20.8,7.2 L20.8,4 L17.6,4 Z M9.6,37.6 L32,37.6 L32,39.2 C32,39.7629488 32.118304,40.2961728 32.3,40.8 L11.2,40.8 C10.2959517,40.8 9.6,40.104048 9.6,39.2 L9.6,37.6 Z" id="Shape" fill="#F29D00"></path>
    </g>
</svg>