<?xml version="1.0" encoding="UTF-8"?>
<svg width="48px" height="48px" viewBox="0 0 48 48" version="1.1" xmlns="http://www.w3.org/2000/svg" xmlns:xlink="http://www.w3.org/1999/xlink">
    <!-- Generator: Sketch 63.1 (92452) - https://sketch.com -->
    <title>icons-feature/text</title>
    <desc>Created with Sketch.</desc>
    <g id="icons-feature/text" stroke="none" stroke-width="1" fill="none" fill-rule="evenodd">
        <path d="M3.525,8.25 L3.525,9.825 L3.525,39.75 L44.475,39.75 L44.475,8.25 L3.525,8.25 Z M6.675,11.4 L22.425,11.4 L22.425,36.6 L6.675,36.6 L6.675,11.4 Z M25.575,11.4 L41.325,11.4 L41.325,36.6 L25.575,36.6 L25.575,11.4 Z M28.725,16.125 L28.725,19.275 L38.175,19.275 L38.175,16.125 L28.725,16.125 Z M28.725,22.425 L28.725,25.575 L38.175,25.575 L38.175,22.425 L28.725,22.425 Z M28.725,28.725 L28.725,31.875 L38.175,31.875 L38.175,28.725 L28.725,28.725 Z" id="Shape" fill="#F29D00"></path>
    </g>
</svg>