<?xml version="1.0" encoding="UTF-8"?>
<svg width="48px" height="48px" viewBox="0 0 48 48" version="1.1" xmlns="http://www.w3.org/2000/svg" xmlns:xlink="http://www.w3.org/1999/xlink">
    <!-- Generator: Sketch 63.1 (92452) - https://sketch.com -->
    <title>icons-feature/truck</title>
    <desc>Created with Sketch.</desc>
    <g id="icons-feature/truck" stroke="none" stroke-width="1" fill="none" fill-rule="evenodd">
        <g id="icon-truck" transform="translate(1.916667, 6.750000)" fill="#F29D00">
            <path d="M0,0 L0,31.4453125 L4.7261556,31.4453125 C5.39296543,34.0189616 7.70924961,35.9375 10.4817708,35.9375 C13.2542936,35.9375 15.5705777,34.0189616 16.2373861,31.4453125 L28.6844889,31.4453125 C29.3512988,34.0189616 31.6675829,35.9375 34.4401042,35.9375 C37.2126269,35.9375 39.5289111,34.0189616 40.1957194,31.4453125 L44.921875,31.4453125 L44.921875,15.8630371 L44.5007324,15.3951009 L35.5163574,6.41072591 L35.0484212,5.98958333 L26.953125,5.98958333 L26.953125,0 L0,0 Z M2.99479167,2.99479167 L23.9583333,2.99479167 L23.9583333,28.4505208 L16.2373861,28.4505208 C15.5705777,25.8768717 13.2542936,23.9583333 10.4817708,23.9583333 C7.70924961,23.9583333 5.39296543,25.8768717 4.7261556,28.4505208 L2.99479167,28.4505208 L2.99479167,2.99479167 Z M26.953125,8.984375 L33.7849935,8.984375 L41.9270833,17.1264648 L41.9270833,28.4505208 L40.1957194,28.4505208 C39.5289111,25.8768717 37.2126269,23.9583333 34.4401042,23.9583333 C31.6675829,23.9583333 29.3512988,25.8768717 28.6844889,28.4505208 L26.953125,28.4505208 L26.953125,8.984375 Z M10.4817708,26.953125 C12.1546435,26.953125 13.4765625,28.2750455 13.4765625,29.9479167 C13.4765625,31.6207893 12.1546435,32.9427083 10.4817708,32.9427083 C8.80889967,32.9427083 7.48697917,31.6207893 7.48697917,29.9479167 C7.48697917,28.2750455 8.80889967,26.953125 10.4817708,26.953125 Z M34.4401042,26.953125 C36.1129768,26.953125 37.4348958,28.2750455 37.4348958,29.9479167 C37.4348958,31.6207893 36.1129768,32.9427083 34.4401042,32.9427083 C32.767233,32.9427083 31.4453125,31.6207893 31.4453125,29.9479167 C31.4453125,28.2750455 32.767233,26.953125 34.4401042,26.953125 Z" id="Shape"></path>
        </g>
    </g>
</svg>