<?xml version="1.0" encoding="UTF-8"?>
<svg width="74px" height="56px" viewBox="0 0 74 56" version="1.1" xmlns="http://www.w3.org/2000/svg" xmlns:xlink="http://www.w3.org/1999/xlink">
    <title>Shape</title>
    <g id="Screens" stroke="none" stroke-width="1" fill="none" fill-rule="evenodd">
        <g id="9.page-404" transform="translate(-143.000000, -299.000000)" fill="#ccc" fill-rule="nonzero">
            <g id="cloud-off" transform="translate(143.000000, 299.000000)">
                <path d="M59.8166667,18.6666667 C57.6582124,8.08888889 48.4082124,0 37,0 C32.375,0 28.0583333,1.24444444 24.6666667,3.73333333 L29.2916667,8.4 C31.45,6.84444444 34.225,6.22222222 37,6.22222222 C46.25,6.22222222 53.9583333,14 53.9583333,23.3333333 L53.9583333,24.8888889 L58.5833333,24.8888889 C63.825,24.8888889 67.8333333,28.9333333 67.8333333,34.2222222 C67.8333333,37.6444444 65.9833333,40.7555556 62.9,42.3111111 L67.525,46.9777778 C71.5333333,44.1777778 74,39.5111111 74,34.2222222 C74,26.1333333 67.525,19.2888889 59.8166667,18.6666667 Z M9.25,4.04444444 L17.8833333,12.4444444 C8.01666667,13.0666667 0,21.1555556 0,31.1111111 C0,41.3777778 8.325,49.7777778 18.5,49.7777778 L54.575,49.7777778 L60.7416667,56 L64.75,51.9555556 L13.2583333,0 L9.25,4.04444444 Z M23.7416667,18.6666667 L48.4083333,43.5555556 L18.5,43.5555556 C11.7166667,43.5555556 6.16666667,37.9555556 6.16666667,31.1111111 C6.16666667,24.2666667 11.7166667,18.6666667 18.5,18.6666667 L23.7416667,18.6666667 Z" id="Shape"></path>
            </g>
        </g>
    </g>
</svg>