<?xml version="1.0" encoding="UTF-8"?>
<svg width="95px" height="96px" viewBox="0 0 95 96" version="1.1" xmlns="http://www.w3.org/2000/svg" xmlns:xlink="http://www.w3.org/1999/xlink">
    <title>Group</title>
    <g id="Screens" stroke="none" stroke-width="1" fill="none" fill-rule="evenodd">
        <g id="13.page-payment-failed" transform="translate(-132.000000, -193.000000)">
            <g id="Group" transform="translate(132.000000, 193.000000)">
                <circle id="Oval" fill="#FFE3E3" cx="47.5" cy="48" r="47.5"></circle>
                <g transform="translate(23.000000, 20.000000)" fill="#E50000" id="💟icons/control-/-check">
                    <path d="M9.3125,43.75 L40.6875,43.75 C43.8958333,43.75 45.8958333,40.2708333 44.2916667,37.5 L28.6041667,10.3958333 C27,7.625 23,7.625 21.3958333,10.3958333 L5.70833333,37.5 C4.10416667,40.2708333 6.10416667,43.75 9.3125,43.75 Z M25,29.1666667 C23.8541667,29.1666667 22.9166667,28.2291667 22.9166667,27.0833333 L22.9166667,22.9166667 C22.9166667,21.7708333 23.8541667,20.8333333 25,20.8333333 C26.1458333,20.8333333 27.0833333,21.7708333 27.0833333,22.9166667 L27.0833333,27.0833333 C27.0833333,28.2291667 26.1458333,29.1666667 25,29.1666667 Z M27.0833333,37.5 L22.9166667,37.5 L22.9166667,33.3333333 L27.0833333,33.3333333 L27.0833333,37.5 Z" id="🔹Icon-Color"></path>
                </g>
            </g>
        </g>
    </g>
</svg>