<?xml version="1.0" encoding="UTF-8"?>
<svg width="100px" height="60px" viewBox="0 0 100 60" version="1.1" xmlns="http://www.w3.org/2000/svg" xmlns:xlink="http://www.w3.org/1999/xlink">
    <title>pay-visa</title>
    <g id="Page-1" stroke="none" stroke-width="1" fill="none" fill-rule="evenodd">
        <g id="pay-visa">
            <g id="Group-5">
                <rect id="Rectangle" stroke="#DBDBDB" fill="#F2F2F1" x="0.5" y="0.5" width="99" height="59" rx="8"></rect>
                <polygon id="polygon10" fill="#09298B" fill-rule="nonzero" points="40 41 43.8470369 19 50 19 46.15046 41"></polygon>
                <path d="M67,18.9357561 C65.8114947,18.4834847 63.9491397,18 61.623346,18 C55.6961724,17.9993951 51.520562,21.0220353 51.485219,25.3533349 C51.4518772,28.5549251 54.4660103,30.3411453 56.7414908,31.4069646 C59.0764821,32.4983179 59.8613902,33.1954766 59.850274,34.1709264 C59.8355747,35.6637329 57.985647,36.3467403 56.2614409,36.3467403 C53.8604845,36.3464984 52.5848899,36.0091702 50.6148651,35.1772264 L49.8419113,34.8224752 L49,39.8106434 C50.4013061,40.4329097 52.9920374,40.9719358 55.6820823,41 C61.9878463,40.9996371 66.0813263,38.0124444 66.1278612,33.3873734 C66.1505674,30.852211 64.5523143,28.9235823 61.091591,27.333258 C58.994887,26.3019183 57.7105744,25.6146766 57.7241983,24.5709917 C57.7243178,23.6445479 58.8110868,22.6543418 61.1594663,22.6543418 C63.1213706,22.6227627 64.5420312,23.0565218 65.6491241,23.5079498 L66.1868932,23.7645758 L67,18.9357535 L67,18.9357561 Z" id="path12" fill="#09298B" fill-rule="nonzero"></path>
                <path d="M83.0413127,19 L78.3068412,19 C76.8404043,19 75.7428003,19.3929262 75.0986145,20.8264749 L66,40.9995211 L72.4331694,40.9995211 C72.4331694,40.9995211 73.4852493,38.2874571 73.7232427,37.6920765 C74.4264989,37.6920765 80.6758603,37.7015194 81.5692722,37.7015194 C81.7528362,38.4719025 82.3147582,41 82.3147582,41 L88,40.9995219 L83.0413204,19 M75.4862596,33.1890233 C75.9930139,31.9205485 77.9271528,27.0358789 77.9271528,27.0358789 C77.8912698,27.0940913 78.4300019,25.7613103 78.7395222,24.9348679 L79.1541284,26.8321974 C79.1541284,26.8321974 80.326795,32.0874227 80.5719904,33.1893852 L75.4862596,33.1890267 L75.4862596,33.1890233 Z" id="path14" fill="#09298B" fill-rule="nonzero"></path>
                <path d="M34.6941585,19 L28.8660464,34.0263017 L28.2449644,30.9730013 C27.1600573,27.4524685 23.7792701,23.6392804 20,21.7299608 L25.3293007,41 L31.6278811,40.992462 L41,19 L34.6941877,19 L34.6941585,19 Z" id="path16" fill="#09298B" fill-rule="nonzero"></path>
                <path d="M23.0360036,19 L13.0788522,19 L13,19.4592822 C20.7464645,21.284813 25.8722274,25.6980581 28,31 L25.8348241,20.8626607 C25.4611066,19.4658444 24.3768616,19.0491073 23.0360027,19 L23.0360036,19 Z" id="path18" fill="#09298B" fill-rule="nonzero"></path>
            </g>
            <g id="visa" transform="translate(13.000000, 18.000000)"></g>
        </g>
    </g>
</svg>