<?xml version="1.0" encoding="UTF-8"?>
<svg width="100px" height="60px" viewBox="0 0 100 60" version="1.1" xmlns="http://www.w3.org/2000/svg" xmlns:xlink="http://www.w3.org/1999/xlink">
    <title>pay-mastercard</title>
    <g id="Page-1" stroke="none" stroke-width="1" fill="none" fill-rule="evenodd">
        <g id="pay-mastercard">
            <g id="Group-4">
                <rect id="Rectangle-Copy-2" stroke="#DBDBDB" fill="#F2F2F1" x="0.5" y="0.5" width="99" height="59" rx="8"></rect>
                <polygon id="Path" fill="#FF5F00" fill-rule="nonzero" points="58 45 41 45 41 15 58 15"></polygon>
                <path d="M42.6821629,30 C42.6821629,36.0603344 45.5437576,41.4587068 50,44.9376311 C46.7412662,47.4815945 42.6285613,49 38.1589185,49 C27.5774748,49 19,40.493547 19,30 C19,19.506453 27.5774748,11 38.1589185,11 C42.6285613,11 46.7412662,12.5184055 50,15.0623689 C45.5437576,18.5412932 42.6821629,23.9396656 42.6821629,30" id="Path" fill="#EB001B" fill-rule="nonzero" transform="translate(34.500000, 30.000000) scale(-1, 1) rotate(-180.000000) translate(-34.500000, -30.000000) "></path>
                <path d="M81,30 C81,19.506453 72.4228623,11 61.8418343,11 C57.3723672,11 53.259824,12.5184055 50,15.0623689 C54.4572854,18.5412932 57.3187677,23.9396656 57.3187677,30 C57.3187677,36.0603344 54.4572854,41.4587068 50,44.9376311 C53.259824,47.4815945 57.3723672,49 61.8418343,49 C72.4228623,49 81,40.493547 81,30" id="Path" fill="#F79E1B" fill-rule="nonzero" transform="translate(65.500000, 30.000000) scale(-1, 1) rotate(-180.000000) translate(-65.500000, -30.000000) "></path>
            </g>
            <g id="mastercard" transform="translate(19.000000, 11.000000)">
                <g id="Group" transform="translate(60.000000, 29.500000) scale(-1, 1) rotate(-180.000000) translate(-60.000000, -29.500000) translate(59.000000, 29.000000)" fill="#F79410" fill-rule="nonzero">
                    <path d="M2,-2.77555756e-17 L2,0.61 L1.76,0.61 L1.48226415,0.191 L1.20603774,0.61 L0.964528302,0.61 L0.964528302,-2.77555756e-17 L1.13509434,-2.77555756e-17 L1.13509434,0.46 L1.39471698,0.063 L1.57132075,0.063 L1.8309434,0.461 L1.8309434,-2.77555756e-17 L2,-2.77555756e-17 Z M0.476981132,2.77555756e-17 L0.476981132,0.506 L0.78490566,0.506 L0.78490566,0.609 L-3.88578059e-16,0.609 L-3.88578059e-16,0.506 L0.307924528,0.506 L0.307924528,2.77555756e-17 L0.476981132,2.77555756e-17 Z" id="Shape"></path>
                </g>
                <g id="Group" transform="translate(15.500000, 19.000000) scale(-1, 1) rotate(-180.000000) translate(-15.500000, -19.000000) "></g>
                <g id="Group" transform="translate(46.500000, 19.000000) scale(-1, 1) rotate(-180.000000) translate(-46.500000, -19.000000) translate(31.000000, 0.000000)"></g>
            </g>
        </g>
    </g>
</svg>