<?xml version="1.0" encoding="UTF-8"?>
<svg width="100px" height="60px" viewBox="0 0 100 60" version="1.1" xmlns="http://www.w3.org/2000/svg" xmlns:xlink="http://www.w3.org/1999/xlink">
    <title>pay-paypal</title>
    <g id="Page-1" stroke="none" stroke-width="1" fill="none" fill-rule="evenodd">
        <g id="pay-paypal">
            <g id="Group-6">
                <rect id="Rectangle-Copy" stroke="#DBDBDB" fill="#F2F2F1" x="0.5" y="0.5" width="99" height="59" rx="8"></rect>
                <path d="M19.0797498,20.0009388 L12.5461069,20.0009388 C12.0992322,20.0006619 11.718651,20.320142 11.6490327,20.7539906 L9.00653283,37.220656 C8.98194731,37.3752945 9.02746477,37.5327614 9.1311007,37.6515965 C9.23473663,37.7704316 9.38610474,37.8387253 9.54535058,37.8384969 L12.6645704,37.8384969 C13.1117546,37.8387008 13.4924488,37.5187274 13.5616446,37.0845057 L14.2743362,32.6431915 C14.343476,32.2093212 14.7236328,31.8894589 15.1704551,31.889201 L17.2387892,31.889201 C21.5426437,31.889201 24.0265554,29.8422528 24.6752384,25.785915 C24.9675757,24.0112673 24.687658,22.6169012 23.8421727,21.6403755 C22.9135719,20.5680751 21.2665474,20.0009388 19.0797498,20.0009388 L19.0797498,20.0009388 Z M19.8335215,26.015023 C19.4762203,28.3192482 17.6849379,28.3192482 15.9528872,28.3192482 L14.9669654,28.3192482 L15.6586392,24.0159621 C15.7004721,23.7558682 15.9285834,23.564319 16.1965016,23.564319 L16.6483825,23.564319 C17.8282405,23.564319 18.941224,23.564319 19.5163451,24.2253518 C19.8593159,24.619718 19.9644045,25.2056334 19.8335215,26.015023 L19.8335215,26.015023 Z M38.6099826,25.9408446 L35.4812093,25.9408446 C35.2132911,25.9408487 34.9851798,26.1323938 34.9433469,26.3924878 L34.8048211,27.2525816 L34.5860458,26.9408445 C33.9087022,25.9746474 32.3982929,25.6516428 30.8907496,25.6516428 C27.4333357,25.6516428 24.4803469,28.2253515 23.9052258,31.8356798 C23.6062011,33.6366187 24.0313321,35.3586843 25.0707536,36.5596231 C26.0241935,37.6638484 27.3884342,38.1239423 29.0115749,38.1239423 C31.7973773,38.1239423 33.3421793,36.363379 33.3421793,36.363379 L33.2026981,37.2178391 C33.1775448,37.372446 33.2225343,37.5301253 33.3258132,37.6493337 C33.4290921,37.7685421 33.5803024,37.8373239 33.7396052,37.8375573 L36.5578895,37.8375573 C37.0050737,37.8377618 37.3857679,37.5177885 37.4549637,37.0835668 L39.1459343,26.5586849 C39.1711229,26.4044171 39.1262182,26.247052 39.0230816,26.1281571 C38.919945,26.0092621 38.7689505,25.9407963 38.6099826,25.9408446 L38.6099826,25.9408446 Z M34.248807,31.9258207 C33.9469162,33.6826281 32.5282206,34.8619707 30.7187865,34.8619707 C29.810248,34.8619707 29.0841816,34.5755857 28.6179705,34.0328628 C28.1555808,33.4938957 27.9797962,32.7267596 28.1269202,31.8722996 C28.4087487,30.1305157 29.8513281,28.9126754 31.633057,28.9126754 C32.5215331,28.9126754 33.2437782,29.2028162 33.7195428,29.750234 C34.1962628,30.3032856 34.3854222,31.0751165 34.248807,31.9258207 L34.248807,31.9258207 Z M55.2732082,25.9408427 L52.1291493,25.9408427 C51.8281168,25.941313 51.5467374,26.0878479 51.3772884,26.3323939 L47.0409519,32.6103277 L45.2028573,26.5774643 C45.0870076,26.1996624 44.7330496,25.9410353 44.3315775,25.9408427 L41.2419736,25.9408427 C41.0660095,25.9403847 40.9006643,26.0235235 40.7980821,26.164042 C40.6955,26.3045605 40.6683256,26.4851376 40.7251289,26.6488258 L44.1882749,36.6375574 L40.93244,41.154928 C40.8144808,41.3182077 40.7991303,41.5325493 40.8926546,41.7104598 C40.9861789,41.8883704 41.1729303,41.9999992 41.3766781,41.9999992 L44.5169156,41.9999992 C44.8145256,42.0004012 45.0933849,41.8572214 45.2630444,41.6168997 L55.7203123,26.7812201 C55.8358364,26.6176248 55.8493965,26.4045178 55.7555109,26.2280507 C55.6616253,26.0515836 55.4758195,25.9408427 55.2732082,25.9408427 L55.2732082,25.9408427 Z" id="Shape" fill="#253B80" fill-rule="nonzero"></path>
                <path d="M65.6827087,20.000939 L59.1481104,20.000939 C58.7015975,20.0011241 58.3215535,20.3204933 58.2519915,20.7539906 L55.6094917,37.220656 C55.5846181,37.3750282 55.6297685,37.5323643 55.7330474,37.6512114 C55.8363263,37.7700586 55.9873755,37.8384963 56.1463987,37.8384963 L59.4996794,37.8384963 C59.8122068,37.8380459 60.0779832,37.6142581 60.1263894,37.3107968 L60.8763397,32.6431915 C60.9454795,32.2093212 61.3256363,31.8894589 61.7724585,31.889201 L63.8398373,31.889201 C68.1446472,31.889201 70.6276035,29.8422528 71.2772419,25.785915 C71.5705346,24.0112673 71.2887061,22.6169012 70.4432208,21.6403755 C69.5155754,20.5680751 67.8695062,20.000939 65.6827087,20.000939 L65.6827087,20.000939 Z M66.4364803,26.015023 C66.0801345,28.3192482 64.2888521,28.3192482 62.5558461,28.3192482 L61.5708796,28.3192482 L62.2635088,24.0159621 C62.3045355,23.755808 62.5325619,23.5639935 62.8004158,23.5643186 L63.2522967,23.5643186 C64.4311993,23.5643186 65.5451382,23.5643186 66.1202592,24.2253518 C66.4632301,24.619718 66.5673633,25.2056334 66.4364803,26.015023 L66.4364803,26.015023 Z M85.2119861,25.9408446 L82.0851235,25.9408446 C81.8171201,25.94012 81.5888652,26.1321268 81.5482165,26.3924878 L81.4096906,27.2525816 L81.18996,26.9408445 C80.5126164,25.9746474 79.0031624,25.6516428 77.4956191,25.6516428 C74.0382052,25.6516428 71.0861718,28.2253515 70.5110507,31.8356798 C70.2129813,33.6366187 70.6362016,35.3586843 71.6756231,36.5596231 C72.6309738,37.6638484 73.9933037,38.1239423 75.6164445,38.1239423 C78.4022469,38.1239423 79.9470488,36.363379 79.9470488,36.363379 L79.8075676,37.2178391 C79.7823615,37.37277 79.8275941,37.5307687 79.9313025,37.6500484 C80.035011,37.7693281 80.1867489,37.8378739 80.3463854,37.8375573 L83.1637144,37.8375573 C83.6105367,37.8372994 83.9906935,37.5174371 84.0598333,37.0835668 L85.7517592,26.5586849 C85.7760313,26.4039427 85.730269,26.2465041 85.6264907,26.1277163 C85.5227123,26.0089285 85.3712883,25.9406618 85.2119861,25.9408446 L85.2119861,25.9408446 Z M80.8508105,31.9258207 C80.5508304,33.6826281 79.1302241,34.8619707 77.32079,34.8619707 C76.4141622,34.8619707 75.6861851,34.5755857 75.2199739,34.0328628 C74.7575842,33.4938957 74.5837104,32.7267596 74.7289237,31.8722996 C75.0126629,30.1305157 76.4533316,28.9126754 78.2350605,28.9126754 C79.1235366,28.9126754 79.8457817,29.2028162 80.3215463,29.750234 C80.8001769,30.3032856 80.9893364,31.0751165 80.8508105,31.9258207 L80.8508105,31.9258207 Z M88.9005949,20.4525821 L86.2189257,37.220656 C86.1940521,37.3750282 86.2392026,37.5323643 86.3424815,37.6512114 C86.4457604,37.7700586 86.5968095,37.8384963 86.7558327,37.8384963 L89.4518322,37.8384963 C89.8998916,37.8384963 90.2801212,37.5192475 90.3489064,37.0845057 L92.993317,20.6187793 C93.0181603,20.4643185 92.9730285,20.3069047 92.8697856,20.1879184 C92.7665428,20.0689322 92.6155171,20.0002767 92.4564099,20 L89.4375019,20 C89.1697849,20.0009317 88.9423217,20.1926703 88.9005949,20.4525821 L88.9005949,20.4525821 Z" id="Shape" fill="#179BD7" fill-rule="nonzero"></path>
            </g>
            <g id="Group-2" transform="translate(9.000000, 20.000000)"></g>
        </g>
    </g>
</svg>