<?xml version="1.0" encoding="UTF-8"?>
<svg width="100px" height="60px" viewBox="0 0 100 60" version="1.1" xmlns="http://www.w3.org/2000/svg" xmlns:xlink="http://www.w3.org/1999/xlink">
    <title>pay-cash</title>
    <g id="Page-1" stroke="none" stroke-width="1" fill="none" fill-rule="evenodd">
        <g id="pay-cash" transform="translate(0.000000, 0.000000)">
            <rect id="Rectangle-Copy-4" stroke="#DBDBDB" fill="#F2F2F1" x="0.5" y="0.5" width="99" height="59" rx="8"></rect>
            <path d="M65.3587792,31.0642677 L60.5719512,13.5744917 C60.2617656,12.4412348 59.0736159,11.7696707 57.9180713,12.0727368 L22.6058772,21.3361883 C21.4503325,21.6392544 20.7643763,22.8025977 21.0745619,23.9357323 L25.8613899,41.4255083 C26.1715755,42.5587652 27.3597252,43.2303293 28.5152698,42.9272632 L63.8275889,33.663934 C64.9828836,33.3607456 65.6689648,32.1975246 65.3587792,31.0642677 Z" id="Path-Copy" fill="#5FE3B1" fill-rule="nonzero" opacity="0.565134448"></path>
            <path d="M67.3587792,33.0642677 L62.5719512,15.5744917 C62.2617656,14.4412348 61.0736159,13.7696707 59.9180713,14.0727368 L24.6058772,23.3361883 C23.4503325,23.6392544 22.7643763,24.8025977 23.0745619,25.9357323 L27.8613899,43.4255083 C28.1715755,44.5587652 29.3597252,45.2303293 30.5152698,44.9272632 L65.8275889,35.663934 C66.9828836,35.3607456 67.6689648,34.1975246 67.3587792,33.0642677 Z" id="Path" fill="#7CD1AF" fill-rule="nonzero"></path>
            <g id="money" transform="translate(23.000000, 14.000000)">
                <g id="Group"></g>
                <g id="Group" transform="translate(7.000000, 11.000000)" fill-rule="nonzero">
                    <path d="M42,21.7204951 L42,2.27937363 C42,1.0197958 41.0035286,-3.73220964e-15 39.7748123,-3.73220964e-15 L2.22518766,-3.73220964e-15 C0.996471418,-3.73220964e-15 -1.82342397e-15,1.0197958 -1.82342397e-15,2.27937363 L-1.82342397e-15,21.7204951 C-1.82342397e-15,22.9800729 0.996471418,24 2.22518766,24 L39.774684,24 C41.0035286,24 42,22.9800729 42,21.7204951 L42,21.7204951 Z" id="Path" fill="#6DC6A1"></path>
                    <path d="M42,21.7204951 L42,2.27937363 C42,1.0197958 41.0035286,-3.73220964e-15 39.7748123,-3.73220964e-15 L2.22518766,-3.73220964e-15 C0.996471418,-3.73220964e-15 -1.82342397e-15,1.0197958 -1.82342397e-15,2.27937363 L-1.82342397e-15,21.7204951 C-1.82342397e-15,22.9800729 0.996471418,24 2.22518766,24 L39.774684,24 C41.0035286,24 42,22.9800729 42,21.7204951 L42,21.7204951 Z M39.7453006,15.236532 C36.6691474,16.0640819 34.243408,18.5443682 33.4369667,21.6923936 L8.5630333,21.6923936 C7.75659203,18.5443682 5.33085263,16.0640819 2.25482774,15.236532 L2.25482774,8.76333673 C5.33085263,7.93578674 7.75453904,5.45760152 8.5630333,2.30747513 L33.439148,2.30747513 C34.2455893,5.45760152 36.6692757,7.93578674 39.7453006,8.76333673 L39.7453006,15.236532 L39.7453006,15.236532 Z" id="Shape" fill="#66B792"></path>
                    <path d="M29.1604542,11.9997374 C29.1604542,7.98818161 26.3943029,4.63504153 22.7049464,3.83441121 C22.1548727,3.71255047 21.5850388,3.64951906 20.999166,3.64951906 C16.4936165,3.64951906 12.8398024,7.38872657 12.8398024,11.9998687 C12.8398024,13.0524934 13.0304741,14.0604708 13.3779432,14.9871639 C14.5514852,18.1248153 17.5221659,20.352188 20.999166,20.352188 C25.5066401,20.352188 29.1604542,16.6128492 29.1604542,11.9997374 L29.1604542,11.9997374 Z" id="Path" fill="#7EE6B9"></path>
                    <path d="M24.0671072,16.3151571 C23.5179316,16.8771872 22.777956,17.2393552 21.8479502,17.4013985 L21.8479502,18.2672926 C21.8550074,18.8071304 21.4846988,19.1859755 20.9572079,19.1788547 C20.4449862,19.1853189 20.0565856,18.800302 20.0667223,18.2672926 L20.0667223,17.4468337 C19.0463848,17.3546502 17.9504715,16.9943206 17.1423622,16.3986737 C16.6173093,16.1058403 16.5899788,15.3526148 16.9420671,14.9098191 C17.3062167,14.4713568 17.6740874,14.5912478 18.1668057,14.864384 C18.6218002,15.1379141 19.0549817,15.3379075 19.4657086,15.4643643 C20.5535382,15.7931782 22.562905,15.8606743 22.5903638,14.3479203 C22.5389106,13.3738223 21.3395779,13.2918814 20.4824533,12.9957651 C19.1921473,12.6082532 18.2747161,12.4894127 17.4468467,11.5070418 C17.1055367,11.0918223 16.934625,10.5347822 16.934625,9.83592134 C16.9239751,8.080759 18.3470841,6.87607104 20.0223263,6.60017728 L20.0223263,5.73428318 C20.0121896,5.20114244 20.4004619,4.81625685 20.9129403,4.82272107 C21.4404311,4.81560028 21.8107397,5.19431404 21.8034259,5.73428318 L21.8034259,6.56971209 C22.6941682,6.69117888 23.5303779,7.03561932 24.3121832,7.60277076 C24.6121768,7.80867339 24.725348,8.05699091 24.727786,8.4232297 C24.7436967,8.85801517 24.404183,9.38511539 23.9708732,9.38025672 C23.6814012,9.37382226 23.5670751,9.30737665 23.2731122,9.13719182 C22.8672612,8.87403565 22.5036248,8.6764059 22.1820748,8.5446965 C21.2066466,8.14379042 19.2330788,8.25882276 19.2355168,9.68412068 C19.2840187,10.758675 20.5069609,10.8529595 21.4323475,11.1425101 C22.1547443,11.3247759 22.7462629,11.5096681 23.2065183,11.6969239 C23.666517,11.8844424 24.0622313,12.1830537 24.3940463,12.5932832 C25.1785462,13.5633105 25.0159749,15.4383638 24.0671072,16.3151571 L24.0671072,16.3151571 Z" id="Path" fill="#15BE79"></path>
                </g>
            </g>
        </g>
    </g>
</svg>