<?xml version="1.0" encoding="UTF-8"?>
<svg width="100px" height="60px" viewBox="0 0 100 60" version="1.1" xmlns="http://www.w3.org/2000/svg" xmlns:xlink="http://www.w3.org/1999/xlink">
    <title>pay-paypal2</title>
    <g id="Page-1" stroke="none" stroke-width="1" fill="none" fill-rule="evenodd">
        <g id="pay-paypal2">
            <g id="Group-6" fill="#F2F2F1" stroke="#DBDBDB">
                <rect id="Rectangle-Copy" x="0.5" y="0.5" width="99" height="59" rx="8"></rect>
            </g>
            <g id="paypal" transform="translate(33.000000, 11.000000)" fill-rule="nonzero">
                <path d="M9.37490584,37.6779004 L10.0497108,33.3846307 L8.54656018,33.3497366 L1.36885473,33.3497366 L6.3569923,1.66974848 C6.38768545,1.46968355 6.5600544,1.32232473 6.76213332,1.32338623 L18.8647537,1.32338623 C22.8826172,1.32338623 25.6553817,2.16085098 27.1030512,3.81379859 C27.781727,4.58922358 28.2139634,5.3995427 28.4229852,6.29128144 C28.6423291,7.22696093 28.6461999,8.34486529 28.432017,9.70832091 L28.4165339,9.80783378 L28.4165339,10.6814793 L29.0952097,11.066607 C29.6133219,11.3295279 30.0790321,11.6851872 30.4693345,12.1160155 C31.0499506,12.7790039 31.4254157,13.6216324 31.5841174,14.6206382 C31.7479802,15.6480763 31.6937893,16.8706631 31.4254157,18.2547967 C31.1157537,19.8470027 30.6151336,21.233721 29.9390384,22.3684263 C29.3425106,23.3849392 28.5404554,24.265346 27.5843175,24.9531763 C26.6862979,25.5916095 25.6192545,26.0762501 24.4128632,26.3864201 C23.2438895,26.6914206 21.9110529,26.8452132 20.4491906,26.8452132 L19.5073022,26.8452132 C18.8337875,26.8452132 18.1796267,27.0881797 17.666104,27.5237101 C17.1533094,27.9638877 16.8131331,28.5720802 16.706152,29.2399841 L16.6351878,29.6264042 L15.4429894,37.1932598 L15.3887985,37.4711204 C15.3746057,37.5590019 15.3500908,37.6029426 15.3139636,37.6326673 C15.2789665,37.661335 15.2353046,37.6772796 15.1900988,37.6779004 L9.37490584,37.6779004 Z" id="Path" fill="#253B80"></path>
                <path d="M29.7377582,9.90863903 C29.7016309,10.1399742 29.6603427,10.3764788 29.6138934,10.6194453 C28.0178442,18.8273188 22.5574722,21.6627895 15.5836275,21.6627895 L12.0328374,21.6627895 C11.1799768,21.6627895 10.4613031,22.2831295 10.3284065,23.125758 L8.51043296,34.6744209 L7.99562,37.9480068 C7.95411695,38.2107941 8.02952951,38.4786106 8.20200366,38.6809478 C8.37447781,38.8832849 8.62673003,39 8.89234934,39 L15.1900988,39 C15.935868,39 16.5693846,38.4572025 16.6867981,37.7205488 L16.7487305,37.4000398 L17.9344776,29.8629088 L18.0106029,29.4493488 C18.1267261,28.7101103 18.761533,28.1673129 19.5073022,28.1673129 L20.4491906,28.1673129 C26.5508208,28.1673129 31.3273561,25.6859529 32.7234152,18.5055174 C33.3066119,15.5059151 33.0046915,13.0012924 31.4615429,11.2397853 C30.9724451,10.6948722 30.3883094,10.2437892 29.7377582,9.90863903 L29.7377582,9.90863903 Z" id="Path" fill="#179BD7"></path>
                <path d="M28.0681643,9.24177354 C27.5585464,9.09410831 27.0401192,8.97885714 26.5159838,8.89670941 C25.4803194,8.73728444 24.4336168,8.66079213 23.3858178,8.66795904 L13.8998408,8.66795904 C13.153914,8.6674985 12.5189937,9.21170858 12.4044317,9.94999503 L10.3864681,22.7522617 L10.3284065,23.125758 C10.458306,22.2836395 11.1821225,21.6623643 12.0328374,21.6627895 L15.5836275,21.6627895 C22.5574722,21.6627895 28.0178442,18.8260264 29.6138934,10.6194453 C29.6616329,10.3764788 29.7016309,10.1399742 29.7377582,9.90863903 C29.3165989,9.68742137 28.8776641,9.50196217 28.4255657,9.35421016 C28.3070402,9.31481836 28.187891,9.27733466 28.0681643,9.24177354 L28.0681643,9.24177354 Z" id="Path" fill="#222D65"></path>
                <path d="M12.4044317,9.94999503 C12.5180369,9.21136846 13.1537281,8.66693053 13.8998408,8.66925142 L23.3858178,8.66925142 C24.5096326,8.66925142 25.5586124,8.74291679 26.5159838,8.89800179 C27.1638321,8.999986 27.802734,9.1525197 28.426856,9.35421016 C28.8978002,9.51058753 29.3351976,9.69539716 29.7390484,9.90863903 C30.2138634,6.87543493 29.7351776,4.8102197 28.0978402,2.9401531 C26.2927692,0.881399742 23.0348677,0 18.8660439,0 L6.76342358,0 C5.91185328,0 5.185438,0.620339994 5.05383168,1.46426086 L0.0127935388,33.4699274 C-0.0347246446,33.7706466 0.0514877236,34.0771364 0.248752412,34.3087746 C0.446017101,34.5404127 0.734585212,34.674009 1.03854868,34.6744209 L8.51043296,34.6744209 L10.3864681,22.7522617 L12.4044317,9.94999503 Z" id="Path" fill="#253B80"></path>
            </g>
        </g>
    </g>
</svg>